HIERARCHY
ROOT Hips
{
	OFFSET 0.000000 83.214638 0.000000
	CHANNELS 6 Xposition Yposition Zposition Xrotation Yrotation Zrotation
	JOINT Pelvis
	{
		OFFSET 0.000000 0.000000 0.000000
		CHANNELS 3 Xrotation Yrotation Zrotation
		JOINT LeftUpLeg
		{
			OFFSET 8.479700 -4.795502 -0.379100
			CHANNELS 3 Xrotation Yrotation Zrotation
			JOINT LeftLeg
			{
				OFFSET 0.024144 -32.555107 0.112900
				CHANNELS 3 Xrotation Yrotation Zrotation
				JOINT LeftFoot
				{
					OFFSET -0.024144 -32.638630 -3.012600
					CHANNELS 3 Xrotation Yrotation Zrotation
					JOINT LeftToeBase
					{
						OFFSET 0.970200 -13.225400 11.864200
						CHANNELS 3 Xrotation Yrotation Zrotation
						End Site
						{
							OFFSET 0.000000 12.319262 0.000000
						}
					}
					JOINT LFootTongue
					{
						OFFSET 1.142400 -1.059800 6.665200
						CHANNELS 3 Xrotation Yrotation Zrotation
						End Site
						{
							OFFSET 0.000000 12.319262 0.000000
						}
					}
				}
				JOINT LeftPantLeg
				{
					OFFSET 0.918482 -16.533964 -2.284700
					CHANNELS 3 Xrotation Yrotation Zrotation
					End Site
					{
						OFFSET 0.350399 24.744368 0.000000
					}
				}
			}
		}
		JOINT RightUpLeg
		{
			OFFSET -8.479700 -4.795502 -0.379100
			CHANNELS 3 Xrotation Yrotation Zrotation
			JOINT RightLeg
			{
				OFFSET -0.023144 -32.555092 0.112900
				CHANNELS 3 Xrotation Yrotation Zrotation
				JOINT RightFoot
				{
					OFFSET 0.023144 -32.638641 -3.012700
					CHANNELS 3 Xrotation Yrotation Zrotation
					JOINT RightToeBase
					{
						OFFSET -0.970200 -13.225400 11.864200
						CHANNELS 3 Xrotation Yrotation Zrotation
						End Site
						{
							OFFSET 0.000000 12.319244 0.000000
						}
					}
					JOINT RFootTongue
					{
						OFFSET -1.142200 -1.059800 6.665200
						CHANNELS 3 Xrotation Yrotation Zrotation
						End Site
						{
							OFFSET 0.000000 12.319243 0.000000
						}
					}
				}
				JOINT RightPantLeg
				{
					OFFSET -0.919482 -16.533978 -2.284800
					CHANNELS 3 Xrotation Yrotation Zrotation
					End Site
					{
						OFFSET -0.350400 24.744419 0.000000
					}
				}
			}
		}
	}
	JOINT Spine
	{
		OFFSET 0.000000 7.722000 1.166200
		CHANNELS 3 Xrotation Yrotation Zrotation
		JOINT Spine1
		{
			OFFSET 0.000000 12.024101 0.248800
			CHANNELS 3 Xrotation Yrotation Zrotation
			JOINT Spine2
			{
				OFFSET 0.000000 11.502998 -0.491200
				CHANNELS 3 Xrotation Yrotation Zrotation
				JOINT Neck
				{
					OFFSET 0.000000 18.430702 -3.123100
					CHANNELS 3 Xrotation Yrotation Zrotation
					JOINT Head
					{
						OFFSET 0.000000 9.051102 1.034000
						CHANNELS 3 Xrotation Yrotation Zrotation
						JOINT HairB
						{
							OFFSET 0.208400 24.786102 24.822300
							CHANNELS 3 Xrotation Yrotation Zrotation
							End Site
							{
								OFFSET 0.000000 32.263779 0.000000
							}
						}
						JOINT HairA
						{
							OFFSET -7.081100 24.428299 23.196600
							CHANNELS 3 Xrotation Yrotation Zrotation
							End Site
							{
								OFFSET 0.000000 32.263779 0.000000
							}
						}
						JOINT Hat
						{
							OFFSET 16.728800 15.048294 -15.439601
							CHANNELS 3 Xrotation Yrotation Zrotation
							End Site
							{
								OFFSET 0.000000 32.263779 0.000000
							}
						}
					}
				}
				JOINT LeftShoulder
				{
					OFFSET 6.197800 13.665199 -4.064700
					CHANNELS 3 Xrotation Yrotation Zrotation
					JOINT LeftArm
					{
						OFFSET 7.778100 -0.187103 -1.709300
						CHANNELS 3 Xrotation Yrotation Zrotation
						JOINT LeftForeArm
						{
							OFFSET 22.049376 0.000000 0.000000
							CHANNELS 3 Xrotation Yrotation Zrotation
							JOINT LeftHand
							{
								OFFSET 23.009392 0.000000 0.000000
								CHANNELS 3 Xrotation Yrotation Zrotation
								JOINT LeftHandThumb1
								{
									OFFSET 3.507191 -2.063065 3.133727
									CHANNELS 3 Xrotation Yrotation Zrotation
									JOINT LeftHandThumb2
									{
										OFFSET 3.101337 -1.790558 1.790558
										CHANNELS 3 Xrotation Yrotation Zrotation
										JOINT LeftHandThumb3
										{
											OFFSET 3.058640 -1.765907 1.765906
											CHANNELS 3 Xrotation Yrotation Zrotation
											End Site
											{
												OFFSET -0.415260 3.926476 -0.049563
											}
										}
									}
								}
								JOINT LeftHandIndex1
								{
									OFFSET 11.334419 -0.901459 3.706815
									CHANNELS 3 Xrotation Yrotation Zrotation
									JOINT LeftHandIndex2
									{
										OFFSET 3.283112 0.000000 0.000000
										CHANNELS 3 Xrotation Yrotation Zrotation
										JOINT LeftHandIndex3
										{
											OFFSET 3.323853 0.000000 0.000000
											CHANNELS 3 Xrotation Yrotation Zrotation
											End Site
											{
												OFFSET -1.135597 3.097809 0.402452
											}
										}
									}
								}
								JOINT LeftHandMiddle1
								{
									OFFSET 11.335861 0.000000 0.000000
									CHANNELS 3 Xrotation Yrotation Zrotation
									JOINT LeftHandMiddle2
									{
										OFFSET 3.410492 0.000000 0.000000
										CHANNELS 3 Xrotation Yrotation Zrotation
										JOINT LeftHandMiddle3
										{
											OFFSET 3.312172 0.000000 0.000000
											CHANNELS 3 Xrotation Yrotation Zrotation
											End Site
											{
												OFFSET -1.150200 3.080154 0.400270
											}
										}
									}
								}
								JOINT LeftHandRing1
								{
									OFFSET 11.514786 -0.013176 -3.003090
									CHANNELS 3 Xrotation Yrotation Zrotation
									JOINT LeftHandRing2
									{
										OFFSET 3.053307 0.000000 0.000000
										CHANNELS 3 Xrotation Yrotation Zrotation
										JOINT LeftHandRing3
										{
											OFFSET 3.295807 0.000000 0.000000
											CHANNELS 3 Xrotation Yrotation Zrotation
											End Site
											{
												OFFSET -1.281006 3.013344 0.375733
											}
										}
									}
								}
								JOINT LeftHandPinky1
								{
									OFFSET 10.518692 -0.960396 -5.730441
									CHANNELS 3 Xrotation Yrotation Zrotation
									JOINT LeftHandPinky2
									{
										OFFSET 2.861649 0.000000 0.000000
										CHANNELS 3 Xrotation Yrotation Zrotation
										JOINT LeftHandPinky3
										{
											OFFSET 2.863380 0.000000 0.000000
											CHANNELS 3 Xrotation Yrotation Zrotation
											End Site
											{
												OFFSET -0.843597 2.711159 0.369971
											}
										}
									}
								}
							}
							JOINT LSleeve
							{
								OFFSET 6.676277 -0.344902 -1.011730
								CHANNELS 3 Xrotation Yrotation Zrotation
								End Site
								{
									OFFSET 0.000000 14.885353 0.000000
								}
							}
						}
					}
				}
				JOINT RightShoulder
				{
					OFFSET -6.197800 13.665199 -4.064700
					CHANNELS 3 Xrotation Yrotation Zrotation
					JOINT RightArm
					{
						OFFSET -7.778100 -0.187103 -1.709300
						CHANNELS 3 Xrotation Yrotation Zrotation
						JOINT RightForeArm
						{
							OFFSET -22.049376 0.000000 0.000000
							CHANNELS 3 Xrotation Yrotation Zrotation
							JOINT RightHand
							{
								OFFSET -23.009392 0.000000 0.000000
								CHANNELS 3 Xrotation Yrotation Zrotation
								JOINT RightHandThumb1
								{
									OFFSET -3.507191 -2.063065 3.133727
									CHANNELS 3 Xrotation Yrotation Zrotation
									JOINT RightHandThumb2
									{
										OFFSET -3.101337 -1.790558 1.790558
										CHANNELS 3 Xrotation Yrotation Zrotation
										JOINT RightHandThumb3
										{
											OFFSET -3.058640 -1.765907 1.765906
											CHANNELS 3 Xrotation Yrotation Zrotation
											End Site
											{
												OFFSET 0.415260 3.926476 -0.049563
											}
										}
									}
								}
								JOINT RightHandIndex1
								{
									OFFSET -11.334419 -0.901459 3.706815
									CHANNELS 3 Xrotation Yrotation Zrotation
									JOINT RightHandIndex2
									{
										OFFSET -3.283112 0.000000 0.000000
										CHANNELS 3 Xrotation Yrotation Zrotation
										JOINT RightHandIndex3
										{
											OFFSET -3.323853 0.000000 0.000000
											CHANNELS 3 Xrotation Yrotation Zrotation
											End Site
											{
												OFFSET 1.135597 3.097809 0.402452
											}
										}
									}
								}
								JOINT RightHandMiddle1
								{
									OFFSET -11.335861 0.000000 0.000000
									CHANNELS 3 Xrotation Yrotation Zrotation
									JOINT RightHandMiddle2
									{
										OFFSET -3.410492 0.000000 0.000000
										CHANNELS 3 Xrotation Yrotation Zrotation
										JOINT RightHandMiddle3
										{
											OFFSET -3.312172 0.000000 0.000000
											CHANNELS 3 Xrotation Yrotation Zrotation
											End Site
											{
												OFFSET 1.150200 3.080154 0.400270
											}
										}
									}
								}
								JOINT RightHandRing1
								{
									OFFSET -11.514786 -0.013176 -3.003090
									CHANNELS 3 Xrotation Yrotation Zrotation
									JOINT RightHandRing2
									{
										OFFSET -3.053307 0.000000 0.000000
										CHANNELS 3 Xrotation Yrotation Zrotation
										JOINT RightHandRing3
										{
											OFFSET -3.295807 0.000000 0.000000
											CHANNELS 3 Xrotation Yrotation Zrotation
											End Site
											{
												OFFSET 1.281006 3.013344 0.375733
											}
										}
									}
								}
								JOINT RightHandPinky1
								{
									OFFSET -10.518692 -0.960396 -5.730441
									CHANNELS 3 Xrotation Yrotation Zrotation
									JOINT RightHandPinky2
									{
										OFFSET -2.861649 0.000000 0.000000
										CHANNELS 3 Xrotation Yrotation Zrotation
										JOINT RightHandPinky3
										{
											OFFSET -2.863380 0.000000 0.000000
											CHANNELS 3 Xrotation Yrotation Zrotation
											End Site
											{
												OFFSET 0.843597 2.711159 0.369971
											}
										}
									}
								}
							}
							JOINT RSleeve
							{
								OFFSET -6.676277 -0.344902 -1.011730
								CHANNELS 3 Xrotation Yrotation Zrotation
								End Site
								{
									OFFSET 0.000000 14.885353 0.000000
								}
							}
						}
					}
				}
				JOINT Backpack
				{
					OFFSET 0.000000 -2.471497 36.677502
					CHANNELS 3 Xrotation Yrotation Zrotation
					End Site
					{
						OFFSET 0.000000 20.427315 0.000000
					}
				}
				JOINT Hood
				{
					OFFSET 0.000000 18.754097 -10.431000
					CHANNELS 3 Xrotation Yrotation Zrotation
					JOINT Hood1
					{
						OFFSET 0.000000 -5.011002 -7.685901
						CHANNELS 3 Xrotation Yrotation Zrotation
						End Site
						{
							OFFSET 0.000000 9.175140 0.000000
						}
					}
				}
				JOINT LHoodieString
				{
					OFFSET 5.250500 16.397697 3.089900
					CHANNELS 3 Xrotation Yrotation Zrotation
					JOINT LHoodieString1
					{
						OFFSET 0.257700 -6.364304 3.694600
						CHANNELS 3 Xrotation Yrotation Zrotation
						JOINT LHoodieString2
						{
							OFFSET 0.000000 -9.643799 2.679100
							CHANNELS 3 Xrotation Yrotation Zrotation
							End Site
							{
								OFFSET 0.000000 10.009018 0.000000
							}
						}
					}
				}
				JOINT RHoodieString
				{
					OFFSET -5.250500 16.397697 3.089900
					CHANNELS 3 Xrotation Yrotation Zrotation
					JOINT RHoodieString1
					{
						OFFSET -0.257700 -6.364304 3.694600
						CHANNELS 3 Xrotation Yrotation Zrotation
						JOINT RHoodieString2
						{
							OFFSET 0.000000 -9.643799 2.679100
							CHANNELS 3 Xrotation Yrotation Zrotation
							End Site
							{
								OFFSET 0.000000 10.009018 0.000000
							}
						}
					}
				}
			}
			JOINT LBackpack_Strap
			{
				OFFSET 15.223200 -7.719803 -6.610900
				CHANNELS 3 Xrotation Yrotation Zrotation
				End Site
				{
					OFFSET 0.000000 16.040596 0.000000
				}
			}
			JOINT RBackpack_Strap
			{
				OFFSET -15.223000 -7.719803 -6.610900
				CHANNELS 3 Xrotation Yrotation Zrotation
				End Site
				{
					OFFSET 0.000000 16.040596 0.000000
				}
			}
		}
	}
	JOINT BoyFacialAnim_Joint
	{
		OFFSET 1.000000 -82.208099 -1.550900
		CHANNELS 3 Xrotation Yrotation Zrotation
		End Site
		{
			OFFSET 0.000000 30.012791 0.000000
		}
	}
}
MOTION
Frames: 4
Frame Time: 0.033333
-0.545060 95.426392 0.697898 -4.841455 0.654754 -1.721434 -0.000000 -0.000000 0.000000 -11.678415 10.847085 5.127774 14.244138 -6.184264 1.438156 41.833232 -1.863123 -5.686715 0.000001 -0.000000 0.000000 0.000001 -0.000000 0.000001 0.000000 -0.000000 -0.000000 -9.786790 -5.336339 -3.305039 14.208523 -5.279658 1.192821 41.122902 3.123578 9.087427 0.000000 -0.000000 0.000000 0.000000 -0.000000 0.000000 0.000000 0.000000 -0.000000 -0.378593 -0.583771 -0.797350 0.017866 -0.426493 -0.231231 0.014649 -0.427196 -0.236085 14.712834 -0.800857 1.627558 -8.792473 -5.704564 2.747202 0.000000 -0.000001 -0.000000 0.000000 -0.000001 -0.000000 0.000000 -0.000001 -0.000000 9.297777 4.245649 55.221270 -48.731716 -6.434820 21.801805 0.000000 -26.350578 0.000017 -51.287511 0.419667 -2.864065 3.845754 2.790279 25.412359 17.207777 25.896287 -4.636826 -0.000001 0.000000 -0.000001 1.939475 4.896992 -52.902984 2.182721 5.033093 -46.868427 -0.000000 -0.000000 -0.000004 -0.632223 2.617131 -49.339907 2.712621 5.479675 -52.647522 0.000001 -0.000000 -0.000002 2.969702 5.667060 -54.292931 2.186589 5.036710 -46.912389 -0.000000 0.000000 -0.000002 3.724928 7.410322 -35.398043 2.977177 1.582548 -55.478106 -0.000000 -0.000000 -0.000000 -0.000002 0.000000 -0.000000 7.456544 -5.540790 -52.066583 -51.411650 11.109100 -16.515935 0.000007 22.578553 -0.000028 -51.184727 2.806081 11.633823 -14.667662 -11.910044 -21.813152 3.710455 -22.378524 -3.429296 -0.000001 0.000004 0.000000 -5.343491 -2.704871 69.125155 1.565535 -4.400176 39.154507 -0.000002 -0.000000 -0.000000 3.303609 -5.991565 66.227912 1.866388 -4.744678 42.926919 0.000000 0.000001 -0.000004 -0.913782 -3.883032 63.885341 1.607949 -4.451621 39.704217 0.000001 0.000001 0.000002 3.796468 -6.202962 65.532551 0.858600 -3.352127 28.726024 0.000001 -0.000001 -0.000002 -0.000000 -0.000000 0.000000 -0.000001 -0.000000 -0.000000 -0.000001 -0.000000 -0.000000 -0.000001 -0.000000 -0.000000 -0.000001 -0.000000 -0.000000 -0.000001 -0.000000 0.000000 -0.000000 0.000000 0.000000 -0.000001 -0.000000 -0.000000 -0.000001 -0.000000 0.000000 -0.000000 0.000000 0.000000 0.000000 -0.000000 0.000000 0.000000 -0.000000 0.000000 -0.000000 -0.000000 0.000000 
-0.511370 95.423264 0.651018 -4.804581 0.848878 -1.715257 0.000000 0.000000 -0.000000 -11.649659 10.828640 5.058854 14.214751 -6.113172 1.424037 41.804593 -1.895712 -5.784248 0.000000 -0.000000 0.000001 0.000000 -0.000000 0.000001 -0.000000 -0.000000 -0.000000 -9.760941 -5.341635 -3.297773 14.179947 -5.135589 1.166777 41.154376 3.125655 9.107417 0.000002 0.000000 -0.000001 0.000002 0.000000 -0.000001 -0.000000 -0.000000 -0.000000 -0.381463 -0.596005 -0.798835 0.017168 -0.435785 -0.237167 0.013849 -0.436420 -0.242161 14.713595 -0.821791 1.660918 -8.718675 -5.844983 2.794321 0.000000 0.000000 0.000000 0.000000 0.000000 0.000000 0.000000 0.000000 0.000000 9.293380 4.257714 55.178527 -48.742013 -6.616157 21.821075 0.000003 -26.300258 -0.000002 -51.391689 0.436827 -2.788345 3.826409 2.710991 25.392695 17.176882 25.848096 -4.617666 0.000002 0.000002 0.000001 1.908655 4.871194 -52.791143 2.182811 5.033175 -46.869383 -0.000000 -0.000000 -0.000000 -0.638157 2.609062 -49.308491 2.714537 5.481117 -52.667660 0.000001 -0.000001 0.000002 2.971096 5.668097 -54.270996 2.187976 5.037992 -46.928201 -0.000001 -0.000000 -0.000002 3.729700 7.418231 -35.387418 2.978740 1.583636 -55.494061 -0.000000 0.000001 -0.000000 0.000001 0.000000 -0.000001 7.458932 -5.533987 -52.130060 -51.345462 10.926174 -16.484991 -0.000008 22.601893 0.000008 -51.118782 2.849085 11.632707 -14.672179 -11.880346 -21.800985 3.710454 -22.378519 -3.429293 0.000001 0.000001 -0.000001 -5.333794 -2.717296 69.168281 1.565558 -4.400192 39.154749 -0.000002 0.000000 0.000002 3.322535 -6.001062 66.297395 1.866123 -4.744380 42.923788 0.000001 0.000001 -0.000002 -0.901967 -3.892656 63.921500 1.608955 -4.452802 39.717191 0.000000 0.000000 0.000000 3.785353 -6.198479 65.621486 0.861298 -3.357032 28.772196 0.000000 -0.000000 0.000002 0.000003 -0.000000 -0.000000 -0.000000 -0.000000 0.000000 -0.000000 -0.000000 0.000000 -0.000000 -0.000000 0.000000 -0.000000 -0.000000 0.000000 -0.000000 -0.000000 0.000000 -0.000000 0.000000 0.000000 -0.000000 -0.000000 0.000000 -0.000000 -0.000000 0.000000 -0.000000 0.000000 0.000000 0.000000 -0.000000 0.000000 0.000000 -0.000000 0.000000 0.000000 0.000000 -0.000000 
-0.475766 95.403481 0.611817 -4.761711 1.083889 -1.710249 0.000000 0.000000 0.000000 -11.561630 10.813558 4.987583 14.199817 -6.073168 1.418768 41.797677 -1.919489 -5.853156 -0.000003 0.000000 -0.000000 -0.000003 0.000000 -0.000000 -0.000000 -0.000000 -0.000000 -9.707724 -5.350851 -3.293954 14.164583 -4.976393 1.134666 41.160923 3.134233 9.153290 -0.000000 -0.000000 0.000000 -0.000000 -0.000000 0.000000 0.000000 0.000000 -0.000000 -0.387910 -0.605601 -0.795807 0.015908 -0.443034 -0.242045 0.012501 -0.443614 -0.247168 14.717593 -0.843208 1.669113 -8.628788 -5.983784 2.823463 0.000000 0.000000 -0.000000 0.000000 0.000000 -0.000000 0.000000 0.000000 -0.000000 9.285347 4.290156 55.140479 -48.683686 -6.873086 21.839308 0.000014 -26.073866 0.000006 -51.591356 0.380416 -2.761144 3.806526 2.629822 25.372715 17.138859 25.788470 -4.594022 -0.000001 0.000002 0.000002 1.878603 4.846679 -52.715417 2.182629 5.033014 -46.867290 -0.000000 0.000000 -0.000004 -0.650372 2.593897 -49.259331 2.715219 5.481650 -52.674771 0.000001 -0.000001 0.000000 2.971888 5.668841 -54.210330 2.188721 5.038687 -46.936811 -0.000000 -0.000001 -0.000000 3.734513 7.426308 -35.376241 2.979615 1.584238 -55.502647 -0.000001 0.000000 -0.000000 -0.000001 -0.000000 -0.000001 7.460729 -5.529680 -52.184069 -51.260942 10.847395 -16.482341 0.000004 22.410074 0.000014 -51.009769 2.942688 11.735821 -14.674520 -11.862959 -21.791109 3.710455 -22.378519 -3.429295 -0.000001 -0.000005 -0.000001 -5.326789 -2.726674 69.201578 1.564667 -4.399103 39.143070 -0.000002 -0.000001 -0.000000 3.336808 -6.008477 66.366066 1.865764 -4.743991 42.919334 0.000001 0.000000 0.000003 -0.890273 -3.904129 63.976340 1.608340 -4.452078 39.709101 0.000001 -0.000000 0.000000 3.778991 -6.196174 65.706925 0.862593 -3.359352 28.794145 -0.000001 -0.000001 0.000002 -0.000000 -0.000001 -0.000001 0.000000 0.000000 -0.000000 0.000000 0.000000 -0.000000 0.000000 0.000000 -0.000000 0.000000 0.000000 -0.000000 0.000000 0.000000 -0.000000 0.000001 0.000000 -0.000000 0.000000 0.000000 -0.000000 0.000000 0.000000 -0.000000 0.000001 0.000000 -0.000000 0.000000 -0.000000 0.000000 0.000000 -0.000000 0.000000 0.000000 0.000000 0.000000 
-0.440708 95.368271 0.578356 -4.706506 1.346825 -1.709564 0.000000 -0.000000 0.000000 -11.425201 10.813125 4.923634 14.184741 -6.100722 1.422945 41.815227 -1.929555 -5.879224 0.000000 -0.000000 -0.000001 0.000000 -0.000000 -0.000000 0.000000 -0.000000 0.000000 -9.634771 -5.352017 -3.284311 14.168354 -4.910879 1.117587 41.142471 3.129448 9.156509 -0.000000 0.000000 -0.000000 -0.000000 0.000000 -0.000000 -0.000000 0.000000 -0.000000 -0.394920 -0.612170 -0.788196 0.015220 -0.447940 -0.244696 0.011736 -0.448502 -0.249927 14.679046 -0.858672 1.667244 -8.531538 -6.079909 2.843344 0.000000 0.000000 -0.000000 0.000000 0.000000 -0.000000 0.000000 0.000000 -0.000000 9.272735 4.346129 55.100096 -48.589737 -7.209660 21.867708 -0.000003 -25.666085 -0.000025 -51.854622 0.258161 -2.801000 3.785869 2.545667 25.352265 17.089144 25.710282 -4.563070 0.000000 -0.000001 0.000002 1.863315 4.834772 -52.703659 2.184066 5.034363 -46.883522 -0.000001 0.000000 -0.000002 -0.662577 2.580731 -49.232106 2.717364 5.483257 -52.697286 -0.000000 -0.000001 -0.000002 2.971742 5.668877 -54.160695 2.188988 5.038936 -46.939874 0.000000 -0.000000 0.000001 3.739590 7.435821 -35.356426 2.980612 1.584908 -55.512817 -0.000001 0.000001 -0.000000 -0.000004 0.000000 -0.000000 7.461174 -5.531672 -52.221314 -51.158202 10.872461 -16.524978 -0.000002 21.998311 0.000012 -50.879408 3.089846 11.947805 -14.675240 -11.854569 -21.782691 3.710456 -22.378515 -3.429294 0.000001 0.000003 0.000000 -5.315578 -2.739492 69.243857 1.564458 -4.398849 39.140416 -0.000002 0.000001 0.000000 3.346199 -6.013340 66.412368 1.866410 -4.744679 42.927189 0.000000 0.000001 -0.000000 -0.875832 -3.917274 64.034287 1.607787 -4.451394 39.702059 -0.000000 0.000001 0.000001 3.776894 -6.195529 65.751554 0.864191 -3.362250 28.821373 -0.000000 -0.000001 0.000002 -0.000002 -0.000001 -0.000000 0.000000 0.000000 -0.000000 0.000000 0.000000 -0.000000 0.000000 0.000000 -0.000000 0.000000 0.000000 -0.000000 0.000000 0.000000 -0.000000 0.000000 0.000000 -0.000000 0.000000 0.000000 -0.000000 0.000000 0.000000 -0.000000 0.000000 0.000000 -0.000000 -0.000000 0.000000 -0.000000 -0.000000 0.000000 -0.000000 0.000000 -0.000000 0.000000 
